<svg xmlns="http://www.w3.org/2000/svg" width="429" height="154" fill="none"><rect width="423" height="148" x="3" y="3" fill="#fff" stroke="#B8B8B8" stroke-width="6" rx="12"/><rect width="93.75" height="93.75" x="51.125" y="30.125" fill="#fff" rx="1"/><path fill="#000" fill-rule="evenodd" d="M48 35.824A8.823 8.823 0 0156.824 27h82.352A8.823 8.823 0 01148 35.824v82.352a8.823 8.823 0 01-8.824 8.824H56.824A8.823 8.823 0 0148 118.176V35.824zm8.824-2.942a2.941 2.941 0 00-2.942 2.942v82.352a2.941 2.941 0 002.942 2.942h82.352a2.942 2.942 0 002.942-2.942V35.824a2.941 2.941 0 00-2.942-2.942H56.824z" clip-rule="evenodd"/><path fill="#000" fill-rule="evenodd" d="M78.335 104.12a3.125 3.125 0 010-4.42l48.613-48.613a3.126 3.126 0 014.42 4.42L82.754 104.12a3.126 3.126 0 01-4.42 0zM62.71 104.12a3.125 3.125 0 010-4.42l48.613-48.613a3.126 3.126 0 014.42 4.42L67.129 104.12a3.126 3.126 0 01-4.42 0z" clip-rule="evenodd"/><path fill="#000" d="M193.142 96.42c-5.76 0-10.566-1.872-14.418-5.616-3.816-3.78-5.724-8.478-5.724-14.094s1.908-10.296 5.724-14.04c3.852-3.78 8.658-5.67 14.418-5.67 3.78 0 7.2.864 10.26 2.592 3.096 1.692 5.508 4.05 7.236 7.074 1.728 2.988 2.592 6.336 2.592 10.044 0 5.652-1.908 10.35-5.724 14.094-3.816 3.744-8.604 5.616-14.364 5.616zm0-7.722c2.232 0 4.248-.504 6.048-1.512a11.045 11.045 0 004.212-4.32c1.044-1.836 1.566-3.888 1.566-6.156 0-3.42-1.134-6.264-3.402-8.532-2.232-2.304-5.04-3.456-8.424-3.456-3.348 0-6.174 1.152-8.478 3.456-2.268 2.268-3.402 5.112-3.402 8.532s1.134 6.282 3.402 8.586c2.304 2.268 5.13 3.402 8.478 3.402zM236.247 75.846h20.142c-.036 5.976-1.854 10.908-5.454 14.796-3.6 3.852-8.226 5.778-13.878 5.778-5.58 0-10.242-1.854-13.986-5.562-3.708-3.744-5.562-8.442-5.562-14.094 0-5.688 1.836-10.404 5.508-14.148 3.672-3.744 8.298-5.616 13.878-5.616 4.716 0 8.838 1.35 12.366 4.05 3.528 2.664 5.724 6.12 6.588 10.368h-8.424c-.54-1.368-1.314-2.538-2.322-3.51-1.008-1.008-2.214-1.782-3.618-2.322-1.368-.54-2.844-.81-4.428-.81-3.348 0-6.066 1.116-8.154 3.348-2.088 2.232-3.132 5.112-3.132 8.64 0 2.304.468 4.356 1.404 6.156.936 1.8 2.25 3.204 3.942 4.212 1.728 1.008 3.708 1.512 5.94 1.512 1.62 0 3.15-.27 4.59-.81s2.664-1.296 3.672-2.268c1.044-1.008 1.8-2.142 2.268-3.402h-11.34v-6.318zM262.7 95.61v-37.8h8.208v37.8H262.7zM302.375 66.396h5.886v29.16h-6.21l-.648-2.592c-2.664 2.304-5.814 3.456-9.45 3.456-4.392 0-8.046-1.458-10.962-4.374-2.88-2.952-4.32-6.642-4.32-11.07 0-4.392 1.44-8.046 4.32-10.962 2.916-2.916 6.57-4.374 10.962-4.374 3.708 0 6.894 1.188 9.558 3.564l.864-2.808zM286.877 86.7c1.512 1.512 3.402 2.268 5.67 2.268 2.304 0 4.212-.756 5.724-2.268 1.512-1.512 2.268-3.42 2.268-5.724 0-2.304-.756-4.212-2.268-5.724-1.512-1.512-3.402-2.268-5.67-2.268-1.512 0-2.88.36-4.104 1.08a7.4 7.4 0 00-2.808 2.862c-.684 1.188-1.026 2.538-1.026 4.05 0 2.304.738 4.212 2.214 5.724zM339.658 66.396h5.886v29.16h-6.21l-.648-2.592c-2.664 2.304-5.814 3.456-9.45 3.456-4.392 0-8.046-1.458-10.962-4.374-2.88-2.952-4.32-6.642-4.32-11.07 0-4.392 1.44-8.046 4.32-10.962 2.916-2.916 6.57-4.374 10.962-4.374 3.708 0 6.894 1.188 9.558 3.564l.864-2.808zM324.16 86.7c1.512 1.512 3.402 2.268 5.67 2.268 2.304 0 4.212-.756 5.724-2.268 1.512-1.512 2.268-3.42 2.268-5.724 0-2.304-.756-4.212-2.268-5.724-1.512-1.512-3.402-2.268-5.67-2.268-1.512 0-2.88.36-4.104 1.08a7.4 7.4 0 00-2.808 2.862c-.684 1.188-1.026 2.538-1.026 4.05 0 2.304.738 4.212 2.214 5.724zM366.195 96.366c-4.392 0-7.938-1.152-10.638-3.456-2.664-2.34-3.996-5.526-3.996-9.558h8.262c0 .9.162 1.71.486 2.43a4.92 4.92 0 001.404 1.674 6.738 6.738 0 002.052.972 8.607 8.607 0 002.376.324c1.656 0 3.078-.396 4.266-1.188 1.224-.792 1.836-1.872 1.836-3.24 0-.576-.144-1.08-.432-1.512-.288-.468-.63-.828-1.026-1.08-.36-.288-.936-.576-1.728-.864a20.332 20.332 0 00-1.944-.648c-.54-.144-1.35-.342-2.43-.594l-1.944-.486a57.006 57.006 0 01-1.944-.54 30.2 30.2 0 01-1.944-.648l-1.728-.864c-.72-.36-1.278-.72-1.674-1.08-.396-.36-.846-.81-1.35-1.35a6.612 6.612 0 01-1.08-1.674 13.778 13.778 0 01-.648-2.052c-.18-.792-.27-1.62-.27-2.484 0-3.6 1.224-6.39 3.672-8.37 2.448-1.98 5.796-2.97 10.044-2.97 4.284 0 7.614 1.08 9.99 3.24 2.412 2.16 3.618 5.13 3.618 8.91h-8.1c0-1.548-.558-2.718-1.674-3.51-1.08-.828-2.43-1.242-4.05-1.242-1.44 0-2.7.306-3.78.918-1.044.612-1.566 1.494-1.566 2.646 0 .54.126 1.026.378 1.458.288.396.612.738.972 1.026.36.252.918.522 1.674.81.756.252 1.386.45 1.89.594.54.108 1.332.288 2.376.54a50.51 50.51 0 012.592.702c.576.144 1.404.414 2.484.81 1.08.36 1.908.72 2.484 1.08.612.36 1.314.846 2.106 1.458.792.576 1.386 1.224 1.782 1.944.432.684.792 1.53 1.08 2.538.324.972.486 2.034.486 3.186 0 2.628-.666 4.878-1.998 6.75a11.608 11.608 0 01-5.184 4.104c-2.088.864-4.482 1.296-7.182 1.296z"/></svg>